<?xml version="1.0" standalone="no"?>
<!DOCTYPE svg PUBLIC "-//W3C//DTD SVG 20010904//EN"
 "http://www.w3.org/TR/2001/REC-SVG-20010904/DTD/svg10.dtd">
<svg version="1.0" xmlns="http://www.w3.org/2000/svg"
 width="192.000000pt" height="192.000000pt" viewBox="0 0 192.000000 192.000000"
 preserveAspectRatio="xMidYMid meet">
<metadata>
Created by potrace 1.10, written by Peter Selinger 2001-2011
</metadata>
<g transform="translate(0.000000,192.000000) scale(0.100000,-0.100000)"
fill="#000000" stroke="none">
<path d="M342 1818 c-17 -17 -17 -1749 0 -1766 17 -17 1229 -17 1246 0 9 9 12
182 12 718 l0 706 -178 177 -178 177 -445 0 c-333 0 -448 -3 -457 -12z m850
-220 l3 -163 157 -3 c144 -2 158 -4 168 -22 7 -12 9 -234 8 -657 l-3 -638
-560 0 -560 0 -3 810 c-1 446 0 816 3 823 3 9 92 12 394 12 l391 0 2 -162z
m181 3 c50 -50 86 -94 83 -100 -12 -18 -162 -14 -180 5 -20 19 -24 184 -4 184
6 0 52 -40 101 -89z"/>
<path d="M670 1078 c-45 -29 -71 -61 -93 -117 -34 -84 -6 -176 75 -243 44 -38
49 -40 116 -40 59 0 76 4 110 27 49 32 55 46 36 74 -19 26 -69 28 -83 4 -7
-13 -22 -18 -58 -18 -57 0 -86 23 -104 84 -15 49 0 110 33 143 27 27 98 30
125 6 24 -22 57 -23 77 -2 25 24 19 42 -26 74 -36 26 -49 30 -107 30 -51 0
-74 -5 -101 -22z"/>
<path d="M950 1090 c0 -5 6 -24 14 -42 14 -33 36 -89 62 -160 77 -207 77 -208
122 -208 42 0 40 -4 87 120 9 25 23 57 31 72 8 14 14 34 14 45 0 10 7 27 15
37 8 11 15 29 15 40 0 12 7 30 15 40 8 11 15 30 15 43 0 20 -5 23 -43 23 -41
0 -45 -2 -59 -37 -21 -53 -38 -103 -47 -138 -14 -54 -41 -109 -49 -99 -5 5
-25 63 -47 129 -21 66 -43 126 -48 133 -11 14 -97 17 -97 2z"/>
</g>
</svg>
