<svg xmlns:dc="http://purl.org/dc/elements/1.1/" xmlns:cc="http://creativecommons.org/ns#" xmlns:rdf="http://www.w3.org/1999/02/22-rdf-syntax-ns#" xmlns:svg="http://www.w3.org/2000/svg" xmlns="http://www.w3.org/2000/svg" xmlns:sodipodi="http://sodipodi.sourceforge.net/DTD/sodipodi-0.dtd" xmlns:inkscape="http://www.inkscape.org/namespaces/inkscape" width="17" height="22.667" viewBox="0 0 17 22.667" version="1.1" fill="currentColor" id="svg8" inkscape:version="1.0 (1.0+r73+1)" sodipodi:docname="google-scholar.svg" stroke="currentColor" strokeWidth="2" strokeLinecap="round" strokeLinejoin="round" className="feather feather-gscholar"><title id="title833">Google Scholar</title><defs id="defs2"/><sodipodi:namedview id="base" pagecolor="#ffffff" bordercolor="#666666" borderopacity="1.0" inkscape:pageopacity="0.0" inkscape:pageshadow="2" inkscape:zoom="0.75" inkscape:cx="192" inkscape:cy="256" inkscape:document-units="px" inkscape:current-layer="layer6" inkscape:document-rotation="0" showgrid="true" units="px" showguides="true" inkscape:guide-bbox="true" inkscape:window-width="1315" inkscape:window-height="713" inkscape:window-x="51" inkscape:window-y="27" inkscape:window-maximized="1"><inkscape:grid type="xygrid" id="grid10" empspacing="4"/><sodipodi:guide position="384.00001,64" orientation="0,1" id="guide23" inkscape:label="baseline" inkscape:locked="true" inkscape:color="rgb(0,0,255)"/></sodipodi:namedview><metadata id="metadata5"><rdf:RDF><cc:Work rdf:about=""><dc:format>
          image/svg+xml
        </dc:format><dc:type rdf:resource="http://purl.org/dc/dcmitype/StillImage"/><dc:title>
          Google Scholar
        </dc:title><cc:license rdf:resource="http://scripts.sil.org/OFL"/><dc:subject><rdf:Bag><rdf:li>
              Google Scholar
            </rdf:li></rdf:Bag></dc:subject></cc:Work><cc:License rdf:about="http://scripts.sil.org/OFL"><cc:permits rdf:resource="http://scripts.sil.org/pub/OFL/Reproduction"/><cc:permits rdf:resource="http://scripts.sil.org/pub/OFL/Distribution"/><cc:permits rdf:resource="http://scripts.sil.org/pub/OFL/Embedding"/><cc:permits rdf:resource="http://scripts.sil.org/pub/OFL/DerivativeWorks"/><cc:requires rdf:resource="http://scripts.sil.org/pub/OFL/Notice"/><cc:requires rdf:resource="http://scripts.sil.org/pub/OFL/Attribution"/><cc:requires rdf:resource="http://scripts.sil.org/pub/OFL/ShareAlike"/><cc:requires rdf:resource="http://scripts.sil.org/pub/OFL/DerivativeRenaming"/><cc:requires rdf:resource="http://scripts.sil.org/pub/OFL/BundlingWhenSelling"/></cc:License></rdf:RDF></metadata><g inkscape:groupmode="layer" id="layer6" inkscape:label="icon"><path style="stroke-width:0.0647871" d="M15.218 4.722V3.517L16.094 2.833H6.624L0.906 7.804h3.792c-0.006 0.095 -0.01 0.18 -0.01 0.275 0 0.923 0.32 1.686 0.959 2.296 0.64 0.611 1.428 0.914 2.361 0.914 0.218 0 0.431 -0.016 0.64 -0.045 -0.129 0.288 -0.193 0.555 -0.193 0.803 0 0.437 0.199 0.904 0.596 1.4 -1.736 0.118 -3.013 0.431 -3.827 0.937 -0.465 0.287 -0.842 0.651 -1.124 1.086 -0.283 0.439 -0.424 0.908 -0.424 1.415 0 0.427 0.091 0.812 0.275 1.154 0.184 0.342 0.424 0.623 0.722 0.84 0.297 0.22 0.641 0.403 1.027 0.551 0.387 0.148 0.771 0.253 1.154 0.312 0.381 0.06 0.762 0.088 1.138 0.088 0.597 0 1.193 -0.077 1.796 -0.23 0.6 -0.154 1.163 -0.383 1.689 -0.686 0.525 -0.301 0.953 -0.712 1.28 -1.227 0.327 -0.516 0.491 -1.099 0.491 -1.741 0 -0.488 -0.1 -0.932 -0.3 -1.335 -0.198 -0.402 -0.44 -0.733 -0.729 -0.989 -0.288 -0.257 -0.576 -0.494 -0.864 -0.708 -0.288 -0.215 -0.531 -0.431 -0.729 -0.657 -0.199 -0.223 -0.299 -0.445 -0.299 -0.663 0 -0.218 0.077 -0.428 0.232 -0.631 0.153 -0.204 0.34 -0.401 0.559 -0.589 0.219 -0.188 0.437 -0.397 0.656 -0.626 0.218 -0.227 0.405 -0.524 0.559 -0.886 0.154 -0.362 0.231 -0.772 0.231 -1.229 0 -0.596 -0.113 -1.083 -0.334 -1.475 -0.027 -0.045 -0.053 -0.08 -0.083 -0.134l2.519 -2.067v0.759c-0.327 0.04 -0.293 0.236 -0.293 0.471v5.696c0 0.264 0.216 0.479 0.479 0.479h0.176c0.264 0 0.479 -0.216 0.479 -0.479V5.192c0 -0.234 0.034 -0.429 -0.291 -0.471zM10.466 14.571c0.05 0.033 0.164 0.123 0.342 0.267 0.18 0.143 0.301 0.253 0.367 0.328 0.064 0.074 0.158 0.185 0.283 0.334 0.124 0.15 0.209 0.278 0.253 0.387 0.045 0.109 0.089 0.241 0.135 0.396 0.044 0.152 0.066 0.308 0.066 0.468 0 0.754 -0.291 1.314 -0.87 1.677 -0.581 0.362 -1.273 0.543 -2.078 0.543 -0.406 0 -0.805 -0.049 -1.198 -0.141 -0.392 -0.094 -0.767 -0.236 -1.124 -0.425 -0.358 -0.189 -0.645 -0.452 -0.864 -0.788 -0.219 -0.338 -0.328 -0.727 -0.328 -1.162 0 -0.457 0.124 -0.854 0.373 -1.191 0.248 -0.338 0.573 -0.593 0.975 -0.767 0.402 -0.175 0.807 -0.299 1.221 -0.372 0.412 -0.075 0.832 -0.113 1.259 -0.113 0.198 0 0.351 0.011 0.461 0.031 0.02 0.01 0.134 0.091 0.342 0.246 0.208 0.153 0.338 0.248 0.388 0.283zm-0.149 -4.452c-0.328 0.392 -0.785 0.589 -1.371 0.589 -0.525 0 -0.987 -0.21 -1.383 -0.633 -0.398 -0.422 -0.682 -0.9 -0.856 -1.435 -0.174 -0.537 -0.261 -1.061 -0.261 -1.579 0 -0.606 0.159 -1.122 0.478 -1.549 0.318 -0.427 0.775 -0.641 1.37 -0.641 0.525 0 0.99 0.223 1.392 0.67 0.403 0.446 0.691 0.948 0.865 1.503 0.173 0.555 0.26 1.086 0.26 1.593 0 0.595 -0.164 1.09 -0.491 1.481z" id="path2"/></g></svg>